<?xml version="1.0" encoding="utf-8"?>
<!DOCTYPE svg PUBLIC "-//W3C//DTD SVG 1.1//EN" "http://www.w3.org/Graphics/SVG/1.1/DTD/svg11.dtd">
<svg version="1.1" id="Layer_1" xmlns="http://www.w3.org/2000/svg" xmlns:xlink="http://www.w3.org/1999/xlink" x="0px" y="0px"
	 width="427.333px" height="445.507px" viewBox="0 0 427.333 445.507" enable-background="new 0 0 427.333 445.507"
	 xml:space="preserve">
<g>
	<g>
		<path fill="#F6ADCD" d="M353.12,290.319l8.769-11.381l-15.198-11.711l-8.77,11.382
			C339.135,282.718,349.418,289.854,353.12,290.319z"/>
		<g id="XMLID_8_">
				<polygon fill="#C49A6C" points="403.404,209.347 403.401,209.345 397.606,201.676 420.822,186.734 412.292,212.987"/>
		</g>
		<path fill="#D1D3D4" d="M369.569,272.248l-7.582,9.839l-1.109-0.113c-3.662-0.378-16.65-9.643-16.985-13.529
				c-0.052-1.037-0.051-1.042,5.884-8.502l1.16-1.456l1.536,1.053c0.411,0.283,0.753,0.704,1.773,1.995
				c0.732,0.928,1.959,2.481,2.483,2.899c1.917,1.53,2.903,2.229,5.022,3.558c0.792,0.496,4.405,2.438,5.73,3.144L369.569,272.248
				L369.569,272.248z"/>
				<!-- R pencil -->
		<path fill="#7B00FF" d="M412.209,213.248c0,0-41.759,56.682-43.101,58.495c-0.156,0.182-7.6-1.655-8.023-2.037
			c-0.208-0.189-4.315-3.4-5.368-4.093c-0.467-0.308-4.489-6.602-4.407-6.704c0.147-0.183,46.105-57.409,46.136-57.448
			c0.003-0.002,3.102,3.54,4.521,4.88c1.19,1.124,3.308,3.131,4.637,4.088C407.841,211.321,412.209,213.248,412.209,213.248z"/>
	</g>
	<g>
		<path fill="#F6ADCD" d="M2.099,209.797l10.95,9.302l12.422-14.623l-10.95-9.302C10.358,196.192,2.739,206.123,2.099,209.797z"/>
		<g id="XMLID_9_">
				<polygon fill="#C49A6C" points="102.334,282.361 76.521,272.587 80.583,263.885 88.52,258.462"/>
			<g>
			</g>
		</g>
		<g>
			<path fill="#D1D3D4" d="M19.365,227.09l-9.467-8.043l0.167-1.102c0.552-3.641,10.425-16.172,14.323-16.322
				c1.038-0.002,1.044-0.001,8.211,6.283l1.4,1.228l-1.125,1.484c-0.301,0.397-0.739,0.719-2.078,1.677
				c-0.961,0.688-2.571,1.838-3.014,2.342c-1.621,1.842-2.365,2.793-3.793,4.847c-0.533,0.767-2.645,4.284-3.414,5.574
				L19.365,227.09L19.365,227.09z"/>
		</g>
		<!-- L pencil -->
		<path fill="#7B00FF" d="M76.265,272.493c0,0-54.626-44.413-56.374-45.84c-0.175-0.164,2.015-7.511,2.417-7.916
			c0.198-0.199,3.602-4.148,4.344-5.167c0.329-0.452,6.808-4.17,6.906-4.083c0.176,0.156,55.146,48.789,55.183,48.822
			c0.003,0.003-3.683,2.928-5.089,4.283c-1.179,1.135-3.285,3.155-4.305,4.437C78.399,268.222,76.265,272.493,76.265,272.493z"/>
	</g>
	<!-- GLASSES EARPIECE -->
	<g id="XMLID_6_">
			<path fill="#404000" d="M118.312,216.224c1.775,0.429-14.46,3.216-14.46,3.216c-0.019,0-0.028,0-0.047,0c-0.086,0-0.163-0.038-0.21-0.115
				c-0.058-0.085-0.058-0.191,0-0.276l8.886-12.895c0.047-0.076,0.21,0.496,0.248,0.582L118.312,216.224z"/>
	</g>
	<!-- GLASSES EARPIECE -->
	<g id="XMLID_7_">
			<path fill="#404000" d="M304.641,226.576c-0.029,0.057-0.439,0.601-0.411,0.658c0.029,0.067,1.289,0.439,1.355,0.468l13.286,4.448
				c0.019,0.009,0.048,0.009,0.076,0.009c0.076,0,0.143-0.028,0.19-0.095c0.067-0.076,0.077-0.191,0.02-0.286l-8.905-14.632
				c-0.048-0.076-0.133-0.114-0.229-0.114c-0.096,0.009-0.172,0.067-0.21,0.153L304.641,226.576z"/>
	</g>
	<g>
		<g id="XMLID_4_">
			<g>
				<!-- OCTOPUS -->
				<path fill="#FFFF00" d="M424.989,345.31c6.375,5.832-1.985,17.829-4.696,21.37c-11.062,14.422-35.171,23.736-61.417,23.736
					c-36.803,0-68.137-17.628-85.966-48.38l-1.336-2.376c-0.058-0.096-0.172-0.144-0.286-0.115
					c-0.105,0.029-0.182,0.124-0.182,0.239c-0.01,19.995,6.003,38.645,16.932,52.531c12.847,16.34,31.82,24.987,54.86,24.987
					c9.039,0,18.812-1.327,29.053-3.942c1.47-0.372,3.207-0.754,5.021-0.754c4.075,0,6.844,1.995,8.198,5.928
					c1.852,5.325-0.296,9.362-6.375,12.016c-12.98,5.632-26.399,8.495-39.914,8.495c-47.55,0-90.271-36.402-97.267-82.864
					l-0.554-4.333c-0.019-0.134-0.133-0.229-0.257-0.22c-0.134,0-0.239,0.105-0.239,0.239c-1.756,37.365-1.66,55.996,19.623,70.895
					c2.291,1.604,4.877,4.83,5.393,7.894c0.277,1.68-0.057,3.188-0.992,4.485c-1.699,2.339-4.667,3.57-8.571,3.57
					c-6.957,0-15.242-3.761-18.926-7.244c-22.792-21.522-22.936-40.64-23.154-69.56l-0.02-1.756c0-0.144-0.114-0.248-0.248-0.248
					c-0.144,0-0.248,0.114-0.248,0.248v0.945c0,29.225,0.01,65.607-28.29,79.714c-4.896,2.434-10.041,4.695-14.479,4.695
					c-3.617,0-6.48-1.508-8.743-4.619c-2.854-3.933-1.012-9.029,5.049-13.973c23.651-19.318,22.687-32.852,20.769-59.824
					c-0.325-4.543-0.697-9.696-0.955-15.223c0-0.134-0.105-0.239-0.238-0.239h-0.01c-0.124,0-0.229,0.096-0.248,0.22l-0.554,4.324
					c-6.996,46.461-49.716,82.863-97.266,82.873c-0.01,0-0.01,0-0.019,0c-13.496,0-26.925-2.863-39.896-8.495
					c-6.08-2.653-8.227-6.69-6.375-12.016c1.355-3.933,4.123-5.928,8.199-5.928c1.813,0,3.55,0.382,5.02,0.754
					c10.241,2.615,20.015,3.942,29.053,3.942c23.04,0,42.014-8.647,54.871-24.987c10.918-13.887,16.931-32.536,16.922-52.531
					c0-0.115-0.077-0.21-0.182-0.239c-0.114-0.028-0.229,0.02-0.286,0.115l-1.336,2.376c-17.829,30.742-49.163,48.38-85.965,48.38
					c0,0,0,0-0.009,0c-26.237,0-50.346-9.314-61.408-23.736c-2.71-3.541-11.071-15.528-4.705-21.37
					c1.479-1.346,3.216-2.032,5.183-2.032c3.102,0,6.137,1.736,7.797,3.226C29.626,359.332,48.075,366.7,65.942,366.7
					c16.55,0,40.01-6.271,57.8-36.164l2.233-3.989c0.047-0.096,0.038-0.21-0.029-0.286s-0.181-0.114-0.277-0.067
					c-14.765,5.603-29.425,8.438-43.579,8.438c-35.18,0-64.644-18.325-73.319-45.622c-8.332-26.18,4.572-54.46,34.493-75.629
					c0.057-0.038,6.051-3.837,10.918-3.837c1.899,0,3.379,0.582,4.419,1.728c1.661,1.833,2.376,3.722,2.128,5.622
					c-0.458,3.484-4.075,5.86-4.132,5.889c-31.878,24.577-34.732,45.097-31.515,57.982c4.724,18.897,24.299,30.446,40.506,33.185
					c5.211,0.878,10.298,1.327,15.118,1.327c42.376,0,57.438-33.605,59.661-46.557c1.212-7.015-4.123-16.245-11.491-29.015
					c-12.627-21.856-31.697-54.88-32.04-103.947C96.569,96.51,111.163,59.154,136.875,33.27
					c21.312-21.456,48.581-33.271,76.793-33.271h0.61c31.134,0.191,60.387,14.383,82.387,39.981
					c22.066,25.684,34.083,59.7,33.835,95.777c-0.344,49.067-19.413,82.091-32.041,103.947c-7.368,12.77-12.703,22-11.491,29.015
					c1.117,6.48,5.431,18.115,14.774,28.136c9.345,10.021,23.699,18.42,44.888,18.42c4.819,0,9.906-0.448,15.118-1.327
					c16.206-2.739,35.781-14.288,40.506-33.185c3.216-12.885,0.362-33.405-31.535-57.991c-0.038-0.019-3.655-2.396-4.113-5.879
					c-0.248-1.899,0.468-3.789,2.129-5.622c1.04-1.146,2.52-1.728,4.419-1.728c4.867,0,10.861,3.799,10.909,3.827
					c29.921,21.179,42.825,49.449,34.502,75.629c-8.676,27.287-38.148,45.631-73.328,45.631h-0.01
					c-14.145,0-28.795-2.835-43.561-8.438c-0.095-0.047-0.21-0.019-0.276,0.067c-0.067,0.076-0.076,0.19-0.028,0.286l2.232,3.989
					c17.791,29.893,41.241,36.164,57.791,36.164c17.877,0,36.326-7.368,50.643-20.196c1.65-1.489,4.686-3.226,7.788-3.226
					C421.772,343.278,423.519,343.964,424.989,345.31z"/>
			</g>
		</g>
		<g>
			<!-- GLASSES -->
			<g id="XMLID_3_">
					<path fill="#404000" d="M302.258,269.195c2.319-7.683,3.398-13.524,3.379-18.363c-0.066-13.057-10.689-16.13-23.508-18.563
						c-7.73-1.47-14.984-2.214-21.541-2.214c-13.544,0-24.08,3.13-31.315,9.306c-2.558,4.715-3.941,8.638-3.292,14.459
						c1.346,12.131,7.921,27.278,14.984,34.474c6.061,6.185,18.382,10.508,29.959,10.508c5.994,0,11.405-1.174,15.653-3.407
						C295.797,290.545,298.937,280.18,302.258,269.195z M321.777,236.152c0.524,3.694,1.184,8.294,0.152,11.74
						c-0.544,1.833-2.186,2.863-3.637,3.779c-0.83,0.516-1.603,1.012-2.052,1.575c-2.09,4.658-3.827,9.869-5.497,14.918
						c-4.496,13.515-9.144,27.487-21.694,33.329c-5.383,2.701-12.141,4.133-19.527,4.133c-13.181,0-26.305-4.448-33.425-11.329
						l-1.116-1.46c-3.599-4.724-7.006-9.182-9.478-14.803c-1.565-3.541-2.501-7.482-3.407-11.291
						c-1.556-6.557-3.035-12.751-7.397-17.17c-1.44-0.201-2.653-0.296-3.712-0.296c-3.685,0-5.851,1.174-7.245,3.932
						c-4.877,16.941-14.688,38.473-33.634,44.524c-4.095,1.308-8.962,2.004-14.059,2.004c-14.173,0-32.279-5.488-38.54-17.552
						c-2.567-4.954-4.209-11.338-5.66-16.979l-0.382-1.508c-0.668-2.577-1.021-5.259-1.365-7.855
						c-0.487-3.674-0.983-7.473-2.386-10.928c-0.974-2.396-2.224-3.865-3.55-5.431c-1.041-1.222-2.128-2.491-3.217-4.333
						c-0.019-0.029-0.028-0.067-0.028-0.115c-0.315-6.013-0.191-10.575,0.372-13.963c0.019-0.105,0.105-0.19,0.21-0.21
						c4.247-0.639,8.647-1.479,12.904-2.291c7.139-1.355,14.517-2.758,21.742-3.359c2.157-0.182,4.38-0.268,6.614-0.268
						c15.443,0,29.921,4.181,43.923,8.228c5.755,1.661,11.186,3.235,16.521,4.457c4.208,0.659,8.465,0.983,13.018,0.983
						c9.85,0,19.347-1.556,28.538-3.054c8.924-1.46,18.144-2.978,27.439-2.978c3.217,0,6.251,0.181,9.248,0.534
						c11.358,1.346,21.389,4.868,31.086,8.266c2.883,1.012,5.87,2.062,8.848,3.035c0.096,0.028,0.162,0.114,0.172,0.21
						C321.624,235.103,321.691,235.618,321.777,236.152z M195.763,253.781c2.52-9.439,0.229-17.294-6.299-21.551
						c-8.198-5.345-21.866-8.657-35.657-8.657c-0.869,0-1.728,0.009-2.577,0.038c-0.849,0.029-1.718,0.057-2.596,0.076
						c-10.041,0.277-21.417,0.602-26.963,6.242c-5.078,5.173-4.61,16.865-3.321,25.76c1.613,11.148,3.961,22.267,10.088,28.08
						c5.421,5.144,14.994,8.217,25.588,8.217c4.801,0,9.267-0.649,12.923-1.88C181.418,285.239,191.85,268.355,195.763,253.781z"/>
			</g>
		</g>
		<!-- EYES -->
		<g>
			<circle cx="157.131" cy="257.779" r="18.771"/>
			<circle fill="#FFFFFF" cx="151.072" cy="248.631" r="3.446"/>
			<circle fill="#FFFFFF" cx="161.75" cy="260.96" r="8.813"/>
		</g>
		<g>
			<circle cx="262.754" cy="257.779" r="18.771"/>
			<circle fill="#FFFFFF" cx="256.696" cy="248.631" r="3.446"/>
			<circle fill="#FFFFFF" cx="267.374" cy="260.96" r="8.812"/>
		</g>
		<!-- MOUTH -->
		<path fill="#000" d="M211.237,321.093c5.606,0.238,11.513-0.477,15.688-2.097c4.289-1.664,5.12-4.266,7.847-4.541
			c5.304-0.536,6.825,5.358,3.368,8.248c-10.17,8.501-25.44,9.355-37.342,6.264c-7.614-1.977-15.41-6.03-19.864-12.765
			c-2.445-3.699-1.931-8.342,3.15-8.808c1.451-0.132,3.526,1.215,6.275,5.289C191.969,315.068,199.672,320.601,211.237,321.093z"/>
		<g id="XMLID_1_">
			<g>
				<!-- EYEBROW -->
				<path fill="#000" d="M155.009,204.064c10.317,0.516,19.365,5.965,24.195,14.565c0.067,0.114,0.028,0.267-0.086,0.334
					c-0.038,0.028-0.086,0.038-0.134,0.038c-0.076,0-0.153-0.038-0.2-0.105c-4.62-6.643-17.228-9.917-23.947-10.804
					c-8.647-1.136-21.522,1.68-32.89,7.12c-0.115,0.048-0.248,0.009-0.315-0.096c-0.067-0.114-0.048-0.257,0.057-0.334
					C132.103,206.813,142.602,203.435,155.009,204.064z"/>
			</g>
			<g>
			</g>
		</g>
		<g id="XMLID_2_">
			<g>
				<!-- EYEBROW -->
				<path fill="#000" d="M300.628,224.686c0.035,0.023,0.081,0.039,0.13,0.035c0.077,0,0.147-0.03,0.194-0.091
					c0.08-0.105,0.079-0.25-0.017-0.338c-9.322-9.145-19.409-13.825-31.752-14.726c-0.763-0.056-1.538-0.084-2.308-0.083
					c-9.376-0.005-18.152,4.324-23.491,11.569c-0.08,0.105-0.062,0.262,0.044,0.342c0.104,0.09,0.25,0.079,0.34-0.025
					c5.399-6.026,18.314-7.728,25.092-7.785l0.221-0.001C279.544,213.587,292.242,219.321,300.628,224.686z"/>
			</g>
			<g>
			</g>
		</g>
		<!-- HEAD SHINE -->
		<path fill="#FFFFFF" d="M123.814,103.033c-0.019,0-0.038-0.002-0.058-0.007c-0.131-0.031-0.214-0.161-0.187-0.294
			c5.67-27.449,8.018-38.81,27.354-57.798c15.744-15.453,39.099-25.637,60.95-26.577c0.138-0.003,0.243,0.09,0.259,0.219
			s-0.07,0.25-0.198,0.276c-29.389,6.023-49.401,22.064-56.641,28.682c-15.29,13.955-24.632,30.498-31.237,55.313
			C124.026,102.958,123.925,103.033,123.814,103.033L123.814,103.033z"/>
		<g>
			<!-- HEAD SPOTS -->
				<ellipse transform="matrix(0.8547 0.5192 -0.5192 0.8547 56.8263 -72.8179)" fill="#7F7F00" cx="158.478" cy="65.092" rx="2.711" ry="4.903"/>
			
				<ellipse transform="matrix(0.9474 0.3202 -0.3202 0.9474 36.3799 -45.7095)" fill="#7F7F00" cx="157.203" cy="87.785" rx="2.717" ry="7.16"/>
			
				<ellipse transform="matrix(0.6801 0.7332 -0.7332 0.6801 98.9952 -110.9759)" fill="#7F7F00" cx="176.649" cy="57.937" rx="2.717" ry="7.16"/>
			
				<ellipse transform="matrix(0.999 0.0438 -0.0438 0.999 4.7474 -6.7083)" fill="#7F7F00" cx="155.294" cy="104.866" rx="2.717" ry="5.332"/>
			
				<ellipse transform="matrix(0.9096 0.4154 -0.4154 0.9096 45.7908 -55.4476)" fill="#7F7F00" cx="150.34" cy="77.525" rx="2.717" ry="5.835"/>
			
				<ellipse transform="matrix(0.7152 0.6989 -0.6989 0.7152 85.9974 -101.5748)" fill="#7F7F00" cx="167.638" cy="54.738" rx="2.29" ry="5.834"/>
			
				<ellipse transform="matrix(0.9977 0.0678 -0.0678 0.9977 7.596 -9.5229)" fill="#7F7F00" cx="144.016" cy="107.084" rx="2.717" ry="4.845"/>
			
				<ellipse transform="matrix(0.9673 0.2537 -0.2537 0.9673 28.1424 -33.675)" fill="#7F7F00" cx="144.615" cy="92.259" rx="2.468" ry="5.834"/>
			
				<ellipse transform="matrix(0.8561 0.5168 -0.5168 0.8561 60.9751 -75.1337)" fill="#7F7F00" cx="165.412" cy="71.932" rx="2.717" ry="5.834"/>
		</g>
	</g>
</g>
</svg>
